<?xml version="1.0" encoding="UTF-8" standalone="no"?>
<!-- Created with Inkscape (http://www.inkscape.org/) -->

<svg
   xmlns:dc="http://purl.org/dc/elements/1.1/"
   xmlns:cc="http://creativecommons.org/ns#"
   xmlns:rdf="http://www.w3.org/1999/02/22-rdf-syntax-ns#"
   xmlns:svg="http://www.w3.org/2000/svg"
   xmlns="http://www.w3.org/2000/svg"
   xmlns:xlink="http://www.w3.org/1999/xlink"
   xmlns:sodipodi="http://sodipodi.sourceforge.net/DTD/sodipodi-0.dtd"
   xmlns:inkscape="http://www.inkscape.org/namespaces/inkscape"
   width="210mm"
   height="297mm"
   viewBox="0 0 210 297"
   version="1.1"
   id="svg8"
   inkscape:version="0.92.4 (5da689c313, 2019-01-14)"
   sodipodi:docname="RafasSVG.svg">
  <defs
     id="defs2">
    <linearGradient
       inkscape:collect="always"
       id="linearGradient3955">
      <stop
         style="stop-color:#008000;stop-opacity:1"
         offset="0"
         id="stop3951" />
      <stop
         style="stop-color:#00ff00;stop-opacity:0;"
         offset="1"
         id="stop3953" />
    </linearGradient>
    <linearGradient
       inkscape:collect="always"
       xlink:href="#linearGradient3955"
       id="linearGradient3957"
       x1="422.24374"
       y1="232.57529"
       x2="187.88838"
       y2="185.09813"
       gradientUnits="userSpaceOnUse"
       gradientTransform="matrix(1.7935903,0,0,1.9128094,-131.36208,-10.658263)" />
  </defs>
  <sodipodi:namedview
     id="base"
     pagecolor="#ffffff"
     bordercolor="#666666"
     borderopacity="1.0"
     inkscape:pageopacity="0.0"
     inkscape:pageshadow="2"
     inkscape:zoom="0.70710678"
     inkscape:cx="954.1355"
     inkscape:cy="737.05759"
     inkscape:document-units="mm"
     inkscape:current-layer="layer1"
     showgrid="false"
     inkscape:window-width="1920"
     inkscape:window-height="1137"
     inkscape:window-x="1912"
     inkscape:window-y="-8"
     inkscape:window-maximized="1" />
  <metadata
     id="metadata5">
    <rdf:RDF>
      <cc:Work
         rdf:about="">
        <dc:format>image/svg+xml</dc:format>
        <dc:type
           rdf:resource="http://purl.org/dc/dcmitype/StillImage" />
        <dc:title></dc:title>
      </cc:Work>
    </rdf:RDF>
  </metadata>
  <g
     inkscape:label="Ebene 1"
     inkscape:groupmode="layer"
     id="layer1">
    <path
       style="fill:none;stroke:#000000;stroke-width:0.49007207px;stroke-linecap:butt;stroke-linejoin:miter;stroke-opacity:1"
       d="M 8.3872649,80.632984 C 189.11052,106.19477 188.15178,105.17229 188.15178,105.17229"
       id="path3719"
       inkscape:connector-curvature="0" />
    <path
       style="fill:none;stroke:#000000;stroke-width:0.49007207px;stroke-linecap:butt;stroke-linejoin:miter;stroke-opacity:1"
       d="M 188.15178,105.17229 C 87.004282,177.25653 87.004282,177.25653 87.004282,177.25653 L 109.53476,124.59926 8.3872649,80.632984 v 0 0"
       id="path3723"
       inkscape:connector-curvature="0" />
    <path
       style="fill:#00ff00;stroke-width:0.49504757"
       d="m 88.745672,174.6634 c 0.16142,-0.54241 5.01906,-12.01485 10.79475,-25.49432 5.775688,-13.47947 10.429418,-24.63209 10.341608,-24.7836 -0.0878,-0.15152 -21.858408,-9.70023 -48.379143,-21.21936 C 34.98216,91.646986 13.474291,82.154378 13.70762,82.071429 c 0.233328,-0.08295 11.183436,1.364788 24.333573,3.21718 49.606419,6.987805 93.786197,13.081932 118.345627,16.324511 13.9737,1.84495 26.46458,3.52716 27.75753,3.73827 l 2.3508,0.38382 -49.02148,34.9572 c -30.01136,21.40107 -48.907678,34.57475 -48.727998,33.97099 z"
       id="path3875"
       inkscape:connector-curvature="0" />
    <path
       style="fill:#00ff00;stroke-width:0.49504757"
       d="m 89.713122,173.10045 c 0.17845,-0.59962 4.70862,-11.40097 10.06705,-24.00301 5.358418,-12.60204 9.875918,-23.37291 10.038888,-23.93527 0.2487,-0.85818 -0.10711,-1.19567 -2.21437,-2.1004 -3.32275,-1.42659 -56.852779,-24.839652 -76.461976,-33.443076 -8.507351,-3.732556 -15.392751,-6.866625 -15.300882,-6.9646 0.162805,-0.173622 13.433658,1.631461 73.43291,9.988228 16.082928,2.240054 44.126188,6.075706 62.318358,8.523678 18.19217,2.44797 33.24492,4.61089 33.45054,4.8065 0.30012,0.2855 -76.0457,54.8672 -89.776748,64.18386 -1.97741,1.34169 -4.10895,2.79828 -4.73676,3.23686 -1.09114,0.76227 -1.12716,0.74937 -0.81701,-0.29277 z"
       id="path3877"
       inkscape:connector-curvature="0" />
    <path
       style="fill:#00ff00;stroke-width:0.49504757"
       d="m 89.726602,173.05516 c 0.18586,-0.62452 4.22184,-10.27559 8.96885,-21.44683 4.746998,-11.17123 9.257308,-21.87868 10.022908,-23.79433 l 1.39201,-3.48299 -2.50818,-1.18258 c -1.3795,-0.65041 -19.226268,-8.48184 -39.659505,-17.40316 -43.11464,-18.824218 -51.87273,-22.694922 -52.230544,-23.083686 -0.143382,-0.155782 0.710037,-0.141576 1.896479,0.03158 9.283375,1.354798 104.47702,14.456154 132.30668,18.209166 19.11496,2.57778 34.92264,4.85306 35.12817,5.05617 0.2823,0.27897 -84.92458,61.19775 -91.813908,65.64248 -0.72505,0.46777 -1.88586,1.24181 -2.57959,1.72008 -1.23888,0.85414 -1.25529,0.8494 -0.92337,-0.26589 z"
       id="path3879"
       inkscape:connector-curvature="0" />
    <path
       style="fill:#00ff00;stroke-width:0.49504757"
       d="m 89.752222,172.96906 c 0.19197,-0.64506 4.52959,-11.03574 9.63915,-23.09039 C 111.24983,121.90176 110.25897,124.505 109.26277,123.9439 108.81554,123.69201 96.477302,118.25523 81.844473,111.86219 32.405697,90.262525 17.032293,83.48961 16.240419,82.95963 c -1.010501,-0.676303 -4.480806,-1.121856 49.784778,6.39188 25.179015,3.486348 62.174553,8.566752 82.212303,11.28979 20.03775,2.72303 36.59989,5.11589 36.80476,5.31745 0.30372,0.2988 -87.510278,63.04314 -93.785808,67.01129 l -1.85327,1.17186 z"
       id="path3881"
       inkscape:connector-curvature="0" />
    <path
       style="fill:url(#linearGradient3957);fill-opacity:1;stroke-width:1.87104595"
       d="M 58.398438 311.76562 L 68.363281 316.74805 C 73.843974 319.48866 98.710794 330.68892 123.62305 341.63672 C 172.70124 363.20437 396.52745 461.13437 407.62305 465.89453 C 411.35987 467.49766 414.41797 469.99966 414.41797 471.45508 C 414.41797 474.0111 397.734 514.354 357.51367 609.05664 C 346.95821 633.91059 338.32227 655.02783 338.32227 655.98242 C 338.32227 656.93702 340.15635 656.72525 342.39844 655.51172 C 354.11255 649.17126 700.56711 401.6482 699.37305 400.47266 C 698.59881 399.71044 649.04526 392.40105 589.25586 384.23047 C 529.46649 376.05989 389.64183 356.85914 278.5332 341.56055 C 167.42459 326.26195 72.441437 313.30013 67.458984 312.75586 L 58.398438 311.76562 z M 320.20703 383.78711 C 326.22215 383.80552 344.49228 386.42546 348.69336 386.49023 C 428.34406 396.89191 508.01718 407.7874 587.43359 419.76562 C 581.15731 426.20076 573.45902 433.34328 564.1582 429.16992 C 483.49186 414.62176 402.48352 401.6982 322.07227 385.85938 C 317.27005 384.30794 317.47289 383.77874 320.20703 383.78711 z "
       id="path3883"
       transform="scale(0.26458333)" />
    <path
       style="fill:none;stroke:#000000;stroke-width:0.49007207px;stroke-linecap:butt;stroke-linejoin:miter;stroke-opacity:1"
       d="m 94.194862,102.10488 c 20.769078,2.92437 41.522528,5.99018 62.318358,8.69101"
       id="path3885"
       inkscape:connector-curvature="0" />
    <path
       style="fill:none;stroke:#000000;stroke-width:0.49007207px;stroke-linecap:butt;stroke-linejoin:miter;stroke-opacity:1"
       d="m 156.51322,110.79589 c -14.54095,11.07678 -29.0819,22.15355 -43.62286,33.23032 14.54096,-11.07677 29.08191,-22.15354 43.62286,-33.23032 z"
       id="path3889"
       inkscape:connector-curvature="0" />
    <path
       style="fill:none;stroke:#000000;stroke-width:0.49007207px;stroke-linecap:butt;stroke-linejoin:miter;stroke-opacity:1"
       d="m 112.89036,144.02621 c 3.67519,-7.32771 7.35038,-14.65542 11.02556,-21.98313 -3.67518,7.32771 -7.35037,14.65542 -11.02556,21.98313 z"
       id="path3891"
       inkscape:connector-curvature="0" />
    <path
       style="fill:none;stroke:#000000;stroke-width:0.49007207px;stroke-linecap:butt;stroke-linejoin:miter;stroke-opacity:1"
       d="m 94.194862,102.10488 c -4.15456,-0.34082 -8.30912,-0.68165 -12.463674,-1.02247 4.154554,0.34082 8.309114,0.68165 12.463674,1.02247 -4.15456,-0.51123 -8.30912,-1.02247 -12.463674,-1.53371 4.154554,0.51124 8.309114,1.02248 12.463674,1.53371 z"
       id="path3893"
       inkscape:connector-curvature="0" />
    <path
       style="fill:none;stroke:#000000;stroke-width:0.26458332px;stroke-linecap:butt;stroke-linejoin:miter;stroke-opacity:1"
       d=""
       id="path3897"
       inkscape:connector-curvature="0" />
    <path
       style="fill:none;stroke:#000000;stroke-width:0.49007207px;stroke-linecap:butt;stroke-linejoin:miter;stroke-opacity:1"
       d="m 123.91592,122.04308 c 1.36566,-2.72498 2.27639,-4.54222 0.36456,-0.72743 -0.12152,0.24248 -0.24304,0.48495 -0.36456,0.72743 z"
       id="path3899"
       inkscape:connector-curvature="0" />
    <path
       style="fill:none;stroke:#000000;stroke-width:0.49007207px;stroke-linecap:butt;stroke-linejoin:miter;stroke-opacity:1"
       d="m 125.66001,118.56299 c -14.64294,-5.82686 -29.285878,-11.65372 -43.928822,-17.48058 14.642944,5.82686 29.285882,11.65372 43.928822,17.48058 z"
       id="path3901"
       inkscape:connector-curvature="0" />
    <path
       style="fill:#ffffff;stroke-width:0.35005152"
       d="m 115.08419,140.42869 c 3.70121,-7.25727 7.3804,-14.531 10.8799,-21.90114 -13.33358,-5.87747 -27.058818,-10.72135 -40.386648,-16.61093 17.257768,1.27914 34.372288,4.46728 51.556178,6.6315 6.1221,0.86024 12.24728,1.69524 18.37365,2.52022 -13.73639,10.42575 -27.39218,20.97471 -41.22229,31.25822 l 0.15617,-0.5575 z"
       id="path3903"
       inkscape:connector-curvature="0" />
    <path
       style="fill:#ffffff;stroke-width:0.35005152"
       d="m 115.08419,140.42869 c 3.70121,-7.25727 7.3804,-14.531 10.8799,-21.90114 -13.33358,-5.87747 -27.058818,-10.72135 -40.386648,-16.61093 17.257768,1.27914 34.372288,4.46728 51.556178,6.6315 6.1221,0.86024 12.24728,1.69524 18.37365,2.52022 -13.73639,10.42575 -27.39218,20.97471 -41.22229,31.25822 l 0.15617,-0.5575 z"
       id="path3905"
       inkscape:connector-curvature="0" />
    <path
       style="fill:#999999;stroke:#000000;stroke-width:0.49007207px;stroke-linecap:butt;stroke-linejoin:miter;stroke-opacity:1"
       d="m 151.71949,114.11892 c -22.25327,-3.90319 -44.5215,-7.7134 -66.752538,-11.75842 h 0.36583 0.35323"
       id="path3907"
       inkscape:connector-curvature="0" />
    <path
       style="fill:#cccccc;stroke:#cccccc;stroke-width:0.12376189"
       d="m 133.6947,110.65273 c -15.84151,-2.814 -31.71258,-5.45449 -47.520748,-8.47309 4.19799,-0.44038 12.35298,1.24429 17.970918,1.79539 17.07248,2.34597 34.13541,4.77313 51.20684,7.12587 -2.00502,2.24986 -4.34623,3.22268 -7.11566,2.09133 -4.84712,-0.8465 -9.69423,-1.693 -14.54135,-2.5395 z"
       id="path3917"
       inkscape:connector-curvature="0" />
    <path
       style="fill:#cccccc;stroke:#cccccc;stroke-width:0.12376189"
       d="m 147.00194,113.02579 c -20.34056,-3.63673 -40.73059,-6.98836 -61.030048,-10.86838 4.99566,-0.47467 12.14348,1.22913 17.910688,1.74968 17.10718,2.39794 34.2446,4.65944 51.32534,7.20397 -2.29099,3.31421 -4.94437,2.68786 -8.20598,1.91473 z"
       id="path3919"
       inkscape:connector-curvature="0" />
    <path
       style="fill:#cccccc;stroke:#cccccc;stroke-width:0.12376189"
       d="m 145.32414,112.76978 c -19.64367,-3.4943 -39.31621,-6.81108 -58.932798,-10.47455 3.12186,-0.92461 11.96002,1.10779 17.307258,1.56498 17.1867,2.40805 34.42336,4.64394 51.56912,7.24767 -2.75458,3.91079 -6.0861,2.33189 -9.94358,1.6619 z"
       id="path3921"
       inkscape:connector-curvature="0" />
    <path
       style="fill:#cccccc;stroke:#cccccc;stroke-width:0.12376189"
       d="m 150.95677,113.77802 c -21.64645,-3.85547 -43.3377,-7.46045 -64.942408,-11.56187 5.22512,-0.67399 13.06072,1.29491 19.218248,1.81718 16.66261,2.38989 33.5042,4.41982 50.0385,7.13266 -1.26009,0.99648 -2.61047,2.79482 -4.31434,2.61203 z"
       id="path3923"
       inkscape:connector-curvature="0" />
    <path
       style="fill:#cccccc;stroke:#cccccc;stroke-width:0.12376189"
       d="m 140.23081,111.94089 c -17.9347,-3.20064 -35.89468,-6.24894 -53.806958,-9.587 1.74928,-1.31414 11.76391,1.07013 16.159688,1.30316 17.57703,2.45045 35.18976,4.71482 52.72999,7.40307 -3.78172,5.39851 -10.03243,0.85438 -15.08272,0.88077 z"
       id="path3925"
       inkscape:connector-curvature="0" />
    <path
       style="fill:#cccccc;stroke:#cccccc;stroke-width:0.01547023"
       d="m 85.160432,102.10008 c 0.78227,-0.018 0.15638,0.018 0,0 z"
       id="path3939"
       inkscape:connector-curvature="0" />
    <path
       style="fill:#cccccc;stroke:#cccccc;stroke-width:0.01547023"
       d="m 85.860762,102.27061 c -4.388535,-0.91181 1.25083,-0.63517 0.63413,-0.48611 -0.99127,-0.31314 -1.03305,0.15274 -0.63413,0.48611 z"
       id="path3941"
       inkscape:connector-curvature="0" />
    <path
       style="fill:#cccccc;stroke:#cccccc;stroke-width:0.01547023"
       d="m 111.76184,106.97529 c -9.10899,-1.77869 -18.408668,-2.95017 -27.406598,-5.12252 0.91179,-0.63053 9.40384,0.6833 13.191,1.08092 5.176858,1.59823 13.616458,0.17596 17.076848,3.4285 0.82382,2.39431 -2.08393,0.21965 -2.86125,0.6131 z m -26.005938,-4.85333 c -8.6e-4,-0.076 -0.0781,0.01 0,0 z m -0.27321,-0.0369 c -0.13431,-0.0268 -0.0241,0.0266 0,0 z m 0.18241,-0.0867 c 0.0204,-0.18914 -0.13061,-0.0418 0,0 z m 0.22937,-0.20046 c -0.0826,-0.0258 -0.0147,0.0279 0,0 z"
       id="path3943"
       inkscape:connector-curvature="0" />
    <path
       style="fill:#cccccc;stroke:#cccccc;stroke-width:0.01547023"
       d="m 113.17748,107.23075 c -9.56922,-1.8411 -19.326818,-3.13917 -28.777278,-5.35467 1.52213,-0.66518 10.64869,0.81758 15.10552,1.3088 4.828668,0.9934 10.902328,0.83931 15.111218,2.44068 -0.16177,0.92958 0.66826,3.11171 -1.43946,1.60519 z m -27.529718,-5.29447 c -0.0939,-0.1098 0.0257,0.15272 0,0 z"
       id="path3945"
       inkscape:connector-curvature="0" />
    <path
       style="fill:#cccccc;stroke:#cccccc;stroke-width:0.01547023"
       d="m 114.36842,107.44501 c -9.94158,-1.89139 -20.063858,-3.29395 -29.890228,-5.53358 0.26824,-0.85491 9.62971,0.68844 13.3005,1.04436 5.172298,1.52961 13.335298,0.24727 16.844418,3.39806 -0.165,0.21629 0.31965,1.41403 -0.25469,1.09116 z M 85.631312,101.9173 c -0.0289,0.007 0.0217,0.07 0,0 z"
       id="path3947"
       inkscape:connector-curvature="0" />
    <path
       style="fill:#cccccc;stroke:#cccccc;stroke-width:0.01547023"
       d="m 114.36842,107.44501 c -9.94158,-1.89139 -20.063858,-3.29395 -29.890228,-5.53358 0.26824,-0.85491 9.62971,0.68844 13.3005,1.04436 5.172298,1.52961 13.335298,0.24727 16.844418,3.39806 -0.165,0.21629 0.31965,1.41403 -0.25469,1.09116 z M 85.631312,101.9173 c -0.0289,0.007 0.0217,0.07 0,0 z"
       id="path3949"
       inkscape:connector-curvature="0" />
    <rect
       style="fill:#ffffff;stroke:#ffffff;stroke-width:0.49007207"
       id="rect4024"
       width="19.126945"
       height="21.471897"
       x="13.90004"
       y="45.664467" />
    <rect
       style="fill:#ffffff;stroke:#ffffff;stroke-width:0.49007207"
       id="rect4028"
       width="38.925011"
       height="26.124144"
       x="13.90004"
       y="45.664467" />
    <path
       style="fill:#ffffff;stroke:#ffffff;stroke-width:0.49007207"
       d="m 44.10048,62.126261 c 1.838868,0.478469 5.882975,-1.39488 5.033407,1.950727 0.68186,3.059149 -3.378151,1.061239 -5.033407,1.627922 0,-1.192882 0,-2.385765 0,-3.578649 z"
       id="rect4030"
       inkscape:connector-curvature="0" />
    <path
       style="fill:none;stroke:#000000;stroke-width:0.49007207px;stroke-linecap:butt;stroke-linejoin:miter;stroke-opacity:1"
       d="m 155.8421,93.260506 c -12.30474,-1.302558 -24.61467,-2.553378 -36.91165,-3.936514 12.30388,1.312172 24.60777,2.624342 36.91165,3.936514 z"
       id="path4040"
       inkscape:connector-curvature="0" />
    <path
       style="fill:none;stroke:#000000;stroke-width:0.49007207px;stroke-linecap:butt;stroke-linejoin:miter;stroke-opacity:1"
       d="m 118.93045,89.323992 c 2.24587,-13.955098 4.52919,-27.903576 6.71121,-41.8702 -2.23707,13.956734 -4.47414,27.913466 -6.71121,41.8702 2.12522,-13.598868 4.25043,-27.197736 6.37565,-40.796605 1.4191,-1.334561 -0.42797,3.985075 -0.37157,5.426752 -2.00136,11.789951 -4.00272,23.579902 -6.00408,35.369853 z"
       id="path4042"
       inkscape:connector-curvature="0" />
    <path
       style="fill:none;stroke:#000000;stroke-width:0.49007207px;stroke-linecap:butt;stroke-linejoin:miter;stroke-opacity:1"
       d="m 125.64166,47.453792 c 10.06681,15.268904 20.13362,30.53781 30.20044,45.806714 C 145.75417,78.010719 135.83496,62.609154 125.64166,47.453792 Z"
       id="path4044"
       inkscape:connector-curvature="0" />
    <path
       style="fill:#666666;stroke:#666666;stroke-width:0.3465333"
       d="m 136.40327,90.787091 c -5.43982,-0.904847 -11.65132,-0.622111 -16.62017,-2.299121 1.62893,-13.231691 4.27935,-26.320182 6.38686,-39.483327 9.57783,14.523327 19.14251,29.05654 28.73488,43.568952 -6.18236,-0.310841 -12.33849,-1.185266 -18.50157,-1.786504 z"
       id="path4046"
       inkscape:connector-curvature="0" />
    <path
       style="fill:none;stroke:#000000;stroke-width:0.49007207px;stroke-linecap:butt;stroke-linejoin:miter;stroke-opacity:1"
       d="m 142.01518,146.23568 c 8.14651,-5.98882 16.29303,-11.97764 24.43954,-17.96646 -8.14651,5.98882 -16.29303,11.97764 -24.43954,17.96646 z"
       id="path4063"
       inkscape:connector-curvature="0" />
    <path
       style="fill:none;stroke:#000000;stroke-width:0.49007207px;stroke-linecap:butt;stroke-linejoin:miter;stroke-opacity:1"
       d="m 166.45472,128.26922 c 6.72284,13.15854 13.4457,26.31707 20.16854,39.47561 -14.86936,-7.16972 -29.73871,-14.33943 -44.60808,-21.50915"
       id="path4065"
       inkscape:connector-curvature="0" />
    <path
       style="fill:#666666;fill-opacity:1;stroke:#666666;stroke-width:0.24503604"
       d="m 164.16902,156.53345 c -7.02598,-3.41995 -14.07594,-6.78637 -21.06128,-10.29965 7.47053,-6.1778 15.50283,-11.59304 23.23477,-17.41491 6.2863,12.39509 12.72751,24.70596 18.88582,37.17089 -3.88005,-0.33369 -10.82935,-4.9534 -15.84807,-6.93837 -1.73756,-0.83822 -3.47462,-1.67757 -5.21124,-2.51796 z"
       id="path4067"
       inkscape:connector-curvature="0" />
    <path
       style="fill:none;fill-opacity:1;stroke:#ffffff;stroke-width:0.17326663"
       d="m 114.47026,141.93825 c 3.76238,-7.87002 7.83646,-15.56953 11.58742,-23.44751 -11.94312,-5.19157 -24.16518,-9.6661 -36.119308,-14.8009 20.262818,3.44717 40.503078,7.05151 60.749338,10.60951 -11.41768,9.56442 -23.60822,18.19502 -35.42049,27.25691 z"
       id="path4071"
       inkscape:connector-curvature="0" />
    <path
       style="fill:none;fill-opacity:1;stroke:#ffffff;stroke-width:0.17326663"
       d="m 115.18641,140.28365 c 3.51049,-7.26894 7.43581,-14.33282 10.61796,-21.7696 -11.80713,-5.32268 -24.03663,-9.60011 -35.872038,-14.82207 20.313138,3.42432 40.608788,6.97958 60.881958,10.66353 -11.87172,9.59351 -24.13619,18.69947 -36.37955,27.76221 l 0.15427,-0.53876 z"
       id="path4073"
       inkscape:connector-curvature="0" />
    <path
       style="fill:none;fill-opacity:1;stroke:#ffffff;stroke-width:0.17326663"
       d="m 115.4367,139.74685 c 3.36227,-7.10171 7.23883,-13.95886 10.29211,-21.20811 -11.82492,-5.33265 -24.05897,-9.64209 -35.919248,-14.85425 20.368248,3.29126 40.719148,6.99653 61.053938,10.61565 -10.86817,9.04738 -22.47564,17.31029 -33.71023,25.93027 -1.68609,1.2111 -3.81735,3.22284 -1.71657,-0.48356 z"
       id="path4075"
       inkscape:connector-curvature="0" />
    <path
       style="fill:none;fill-opacity:1;stroke:#ffffff;stroke-width:0.17326663"
       d="m 114.38518,141.93 c 3.62745,-7.77943 7.93193,-15.70446 11.3525,-23.29752 -11.74477,-5.43361 -24.15444,-9.62997 -35.852608,-14.9415 20.356978,3.26741 40.725218,6.89206 61.025118,10.65652 -11.92483,9.72709 -24.35657,18.80909 -36.65172,28.02106 l 0.10772,-0.37285 z"
       id="path4077"
       inkscape:connector-curvature="0" />
    <path
       style="fill:none;fill-opacity:1;stroke:#ffffff;stroke-width:0.17326663"
       d="m 114.30248,142.09061 c 3.52186,-7.96697 8.11152,-15.53675 11.2129,-23.61694 -11.7965,-5.19108 -23.98217,-9.49334 -35.703518,-14.78969 20.392788,3.16905 40.770478,6.88149 61.091548,10.65412 -10.94233,9.14784 -22.62345,17.40544 -33.91645,26.10895 -0.83329,0.36834 -1.82384,1.79372 -2.68448,1.64356 z"
       id="path4079"
       inkscape:connector-curvature="0" />
  </g>
</svg>
